# xmcd
#
# Track frame offsets: 
#        182
#        15502
#        30922
#        43432
#        58035
#        73532
#        88770
#        102347
#        116055
#        127940
#        145682
#        160135
#        173060
#        185572
#        200367
#        216445
#        228915
#        243865
#        260327
#        270792
#
# Disc length: 3843 seconds
#
# Revision: 2
# Processed by: cddbd v1.5.2PL0 Copyright (c) Steve Scherf et al.
# Submitted via: ExactAudioCopy v0.99pb4
#
DISCID=0f0f0114
DTITLE=Various Artist - Country Romance Disc 2
DYEAR=1990
DGENRE=Country
TTITLE0=Michael Martin Murphey - A Long Line Of Love
TTITLE1=Frizzell And West - You're The Reason God Made Oklahoma
TTITLE2=John Anderson - She Sure Got Away With My Heart
TTITLE3=Anne Murray - Could I Have This Dance
TTITLE4=Crystal Gayle And Gary Morris - Makin' Up For Lost Time
TTITLE5=Lee Greenwood - I Don't Mind The Thorns (If You're The Rose)
TTITLE6=Donna Fargo - Somebody Special
TTITLE7=Charlie Pride - Never Been So Loved (In All My Life)
TTITLE8=Kieran Kane - You're The Best
TTITLE9=Conway Twitty - Somebody's Needin' Somebody
TTITLE10=Ronnie Milsap - Back On My Mind Again
TTITLE11=Barbara Mandrell - Wish You Were Here
TTITLE12=Johnny Lee - Bet Your Heart On Me
TTITLE13=Dolly Parton - You're The Only One
TTITLE14=Conway Twitty - The Rose
TTITLE15=Vern Gosdin - Till The End
TTITLE16=Forester Sisters - (I'd Choose) You Again
TTITLE17=John Conlee - Miss Emily's Picture
TTITLE18=Tom T. Hall - Your Man Loves You Honey
TTITLE19=Eddie Rabbitt With Crystal Gayle - You And I
EXTD=
EXTT0=
EXTT1=
EXTT2=
EXTT3=
EXTT4=
EXTT5=
EXTT6=
EXTT7=
EXTT8=
EXTT9=
EXTT10=
EXTT11=
EXTT12=
EXTT13=
EXTT14=
EXTT15=
EXTT16=
EXTT17=
EXTT18=
EXTT19=
PLAYORDER=
